<mxfile host="app.diagrams.net" modified="2021-08-13T03:07:01.648Z" agent="5.0 (Macintosh; Intel Mac OS X 10_14_6) AppleWebKit/537.36 (KHTML, like Gecko) Chrome/92.0.4515.131 Safari/537.36" etag="B0CWOUT57TrqcbG5HVTP" version="14.9.6" type="github">
  <diagram id="eP3Mbqe-ZfESbFIX2fcY" name="Page-1">
    <mxGraphModel dx="946" dy="550" grid="1" gridSize="10" guides="1" tooltips="1" connect="1" arrows="1" fold="1" page="1" pageScale="1" pageWidth="827" pageHeight="1169" math="0" shadow="0">
      <root>
        <mxCell id="0" />
        <mxCell id="1" parent="0" />
        <mxCell id="0kx7r33-9dAryFLaWbHi-2" style="edgeStyle=orthogonalEdgeStyle;rounded=0;orthogonalLoop=1;jettySize=auto;html=1;" edge="1" parent="1" source="0kx7r33-9dAryFLaWbHi-1" target="0kx7r33-9dAryFLaWbHi-3">
          <mxGeometry relative="1" as="geometry">
            <mxPoint x="354" y="270" as="targetPoint" />
          </mxGeometry>
        </mxCell>
        <mxCell id="0kx7r33-9dAryFLaWbHi-1" value="" style="rounded=1;whiteSpace=wrap;html=1;" vertex="1" parent="1">
          <mxGeometry x="294" y="100" width="120" height="30" as="geometry" />
        </mxCell>
        <mxCell id="0kx7r33-9dAryFLaWbHi-3" value="" style="ellipse;whiteSpace=wrap;html=1;aspect=fixed;" vertex="1" parent="1">
          <mxGeometry x="314" y="230" width="80" height="80" as="geometry" />
        </mxCell>
      </root>
    </mxGraphModel>
  </diagram>
</mxfile>
